<?xml version="1.0" standalone="no"?>
<!DOCTYPE svg PUBLIC "-//W3C//DTD SVG 20010904//EN"
 "http://www.w3.org/TR/2001/REC-SVG-20010904/DTD/svg10.dtd">
<svg width="100" height="50" viewBox="0 0 200 60" xmlns="http://www.w3.org/2000/svg" preserveAspectRatio="xMidYMid meet">
    <g transform="translate(-20, 85) scale(0.1, -0.1)" fill="#000000" stroke="none">
<path d="M662 758 c-17 -17 -15 -73 2 -87 25 -21 69 -9 84 22 12 24 11 31 -2
53 -18 26 -63 33 -84 12z"/>
<path d="M1123 734 c-3 -9 -3 -101 0 -206 6 -203 11 -221 56 -216 23 3 26 8
29 46 3 36 8 46 35 62 18 11 35 20 39 20 3 0 23 -30 43 -66 32 -57 40 -65 62
-62 48 6 50 29 7 104 -21 38 -40 71 -42 75 -1 3 18 20 43 39 49 37 55 57 25
85 -24 22 -33 18 -123 -50 -41 -30 -77 -55 -80 -55 -4 0 -8 53 -9 118 l-3 117
-38 3 c-27 2 -39 -1 -44 -14z"/>
<path d="M1473 734 c-3 -9 -3 -101 0 -206 6 -203 11 -221 56 -216 23 3 26 8
29 46 3 36 8 46 35 62 18 11 35 20 39 20 3 0 23 -30 43 -66 32 -57 40 -65 62
-62 48 6 50 29 7 104 -21 38 -40 71 -42 75 -1 3 18 20 43 39 49 37 55 57 25
85 -24 22 -33 18 -123 -50 -41 -30 -77 -55 -80 -55 -4 0 -8 53 -9 118 l-3 117
-38 3 c-27 2 -39 -1 -44 -14z"/>
<path d="M310 732 l-25 -8 -3 -187 c-3 -201 2 -227 43 -227 31 0 45 26 45 84
l0 46 78 0 c121 0 174 44 175 143 1 64 -22 111 -66 134 -35 18 -201 28 -247
15z m204 -98 c9 -8 16 -31 16 -49 0 -46 -29 -65 -97 -65 l-53 0 0 65 0 65 59
0 c41 0 65 -5 75 -16z"/>
<path d="M667 619 c-17 -10 -17 -22 -11 -147 4 -75 11 -143 17 -150 6 -7 22
-12 36 -10 23 3 27 9 33 53 3 28 7 94 7 147 1 86 -1 98 -18 108 -24 13 -41 12
-64 -1z"/>
<path d="M897 618 c-134 -36 -156 -242 -31 -294 72 -30 203 -3 219 45 8 25
-10 61 -31 61 -9 0 -27 -9 -41 -20 -55 -43 -143 -10 -143 54 0 68 93 105 144
57 25 -24 46 -27 64 -9 32 32 -4 90 -69 108 -40 12 -61 11 -112 -2z"/>
<path d="M1833 623 c-9 -3 -13 -34 -13 -106 0 -118 12 -170 43 -192 27 -19 90
-19 127 0 25 13 29 13 34 -1 4 -10 16 -14 38 -12 42 4 46 19 47 180 l1 128
-27 6 c-49 13 -58 -3 -63 -115 -5 -109 -11 -121 -60 -121 -43 0 -50 16 -50
120 0 61 -4 100 -12 108 -12 12 -43 15 -65 5z"/>
</g>
</svg>
